<svg width="500" height="500" viewBox="0 0 500 500" fill="none" xmlns="http://www.w3.org/2000/svg">
<path d="M436.598 150.897L380.998 58.1969L306.898 25.4969C304.198 31.8969 289.898 60.1969 250.298 59.6969C210.198 60.1969 196.098 31.1969 193.598 25.2969L118.998 58.2969L64.3984 150.997C64.3984 150.997 90.6984 177.397 125.898 183.297L119.998 464.297C119.998 464.297 194.698 471.997 248.098 471.997C248.098 471.997 249.998 471.997 251.898 471.997C305.298 471.997 379.998 464.297 379.998 464.297L374.098 183.197C409.298 177.297 436.598 150.897 436.598 150.897Z" fill="white"/>
<path d="M250.297 59.5984C289.897 60.0984 304.097 31.7984 306.897 25.3984L305.897 24.8984C305.897 24.8984 279.097 33.9984 251.997 33.9984C251.297 33.9984 250.697 33.9984 250.097 33.9984C248.997 33.9984 248.197 33.9984 248.197 33.9984C221.097 33.9984 194.297 24.8984 194.297 24.8984L193.797 25.0984C196.097 31.1984 210.197 60.1984 250.297 59.5984Z" fill="#C8C9CA"/>
<path d="M249.998 34.1C248.898 34.1 248.098 34.1 248.098 34.1C220.998 34.1 194.198 25 194.198 25L118.998 58.2L64.3984 150.9C64.3984 150.9 91.3984 177.7 126.598 183.6L119.998 464.3C119.998 464.3 194.698 472 248.098 472C248.098 472 249.998 472 251.898 472C305.298 472 379.998 464.3 379.998 464.3L374.098 183.2C409.198 177.3 436.598 150.9 436.598 150.9L380.998 58.2L305.798 25C305.798 25 278.998 34.1 251.898 34.1C251.198 34.1 250.598 34.1 249.998 34.1Z" stroke="#231815" stroke-width="2" stroke-miterlimit="10"/>
<path d="M193.203 25.2969C193.203 25.2969 205.603 60.1969 250.303 59.5969C294.903 60.0969 307.403 25.2969 307.403 25.2969" stroke="#231815" stroke-width="1.5" stroke-miterlimit="10"/>
<path d="M178.703 31.2969C178.703 31.2969 193.103 74.3969 250.303 73.7969C307.403 74.4969 321.903 31.2969 321.903 31.2969" stroke="#231815" stroke-width="0.75" stroke-miterlimit="10"/>
<path d="M201.797 38.7031C201.797 38.7031 226.097 44.9031 250.297 44.8031C274.597 44.9031 298.797 38.7031 298.797 38.7031" stroke="#231815" stroke-width="0.5" stroke-miterlimit="10"/>
<path d="M119 58.2031C119 58.2031 126.1 83.4031 128.8 99.7031" stroke="#231815" stroke-width="0.75" stroke-miterlimit="10"/>
<path d="M129.703 67L127.203 188H125.703L129.703 67Z" fill="#231815"/>
<path d="M68.1016 145.703C73.7016 150.503 97.3016 169.503 124.402 176.203" stroke="#231815" stroke-width="0.5" stroke-miterlimit="10" stroke-dasharray="1.96 1.96"/>
<path d="M124.898 176.305C125.198 176.405 125.498 176.505 125.898 176.505" stroke="#231815" stroke-width="0.5" stroke-miterlimit="10"/>
<path d="M121.898 454.898C121.898 454.898 196.198 461.398 250.298 461.398C304.498 461.398 378.698 454.898 378.698 454.898" stroke="#231815" stroke-width="0.5" stroke-miterlimit="10" stroke-dasharray="2 2"/>
<path d="M121.898 452.102C121.898 452.102 196.198 458.602 250.298 458.602C304.498 458.602 378.698 452.102 378.698 452.102" stroke="#231815" stroke-width="0.5" stroke-miterlimit="10" stroke-dasharray="2 2"/>
<path d="M380.997 58.2031C380.997 58.2031 374.497 83.4031 371.797 99.7031" stroke="#231815" stroke-width="0.75" stroke-miterlimit="10"/>
<path d="M370.898 67L374.898 188H373.398L370.898 67Z" fill="#231815"/>
<path d="M433.003 146.102C427.403 150.902 403.303 169.502 376.203 176.202" stroke="#231815" stroke-width="0.5" stroke-miterlimit="10" stroke-dasharray="1.96 1.96"/>
<path d="M375.703 176.305C375.403 176.405 375.103 176.505 374.703 176.505" stroke="#231815" stroke-width="0.5" stroke-miterlimit="10"/>
</svg>
